<svg version="1.1" xmlns="http://www.w3.org/2000/svg" xmlns:xlink="http://www.w3.org/1999/xlink" width="64.245" height="183.833" viewBox="0,0,64.245,183.833"><g transform="translate(-208.027,-86.934)"><g data-paper-data="{&quot;isPaintingLayer&quot;:true}" fill-rule="nonzero" stroke-width="1.5" stroke-linecap="round" stroke-linejoin="round" stroke-miterlimit="10" stroke-dasharray="" stroke-dashoffset="0" style="mix-blend-mode: normal"><path d="M271.522,232.951l-18.377,-21.977l6.262,-19.129l12.115,11.59z" fill="#d49b11" stroke="#231f20"/><path d="M255.018,209.831c0.822,0 1.488,0.667 1.488,1.489c0,0.821 -0.667,1.488 -1.488,1.488" fill="#d49b11" stroke="#231f20"/><path d="M225.882,229.072v-3.956h28.425v3.956z" fill="#d2d3d5" stroke="#231f20"/><path d="M229.732,127.561c0,-9.542 4.658,-17.275 10.403,-17.275c5.746,0 10.403,7.733 10.403,17.275" fill="#d49b11" stroke="#231f20"/><path d="M227.125,210.974l-13.008,-39.736l13.009,-39.737h26.018l13.009,39.737l-13.008,39.736z" fill="#ffffff" stroke="#231f20"/><path d="M208.777,203.435l12.116,-11.59l6.263,19.129l-18.379,21.977z" fill="#d49b11" stroke="#231f20"/><path d="M225.669,131.501v-7.882h28.932v7.882z" fill="#e9c769" stroke="#231f20"/><path d="M243.611,111.249h-6.953l1.319,-7.882h4.316z" fill="#e9c769" stroke="#231f20"/><path d="M214.117,171.238h52.036" fill="none" stroke="#231f20"/><path d="M229.439,215.262v-4.288h21.391v4.288z" fill="#ffffff" stroke="#231f20"/><path d="M250.431,225.116h-20.591l4.118,-9.854h12.354z" fill="#939598" stroke="#231f20"/><g stroke="#231f20"><g><path d="M234.039,145.932v-4.248h12.406v4.248z" fill="#d49b11"/><path d="M229.732,154.68c0,-5.74542 4.65758,-10.403 10.403,-10.403c5.74542,0 10.403,4.65758 10.403,10.403c0,5.74542 -4.65758,10.403 -10.403,10.403c-5.74542,0 -10.403,-4.65758 -10.403,-10.403z" fill="#e9c769"/><path d="M232.605,154.679c0,-4.1587 3.3713,-7.53 7.53,-7.53c4.1587,0 7.53,3.3713 7.53,7.53c0,4.1587 -3.3713,7.53 -7.53,7.53c-4.1587,0 -7.53,-3.3713 -7.53,-7.53z" fill="#ffffff"/></g><path d="M239.045,149.827l5.934,6.922" fill="none"/><path d="M243.44,158.837l-4.395,-5.055" fill="none"/><path d="M234.87,152.683l5.265,6.154" fill="none"/></g><path d="M240.135,103.367v-13.925" fill="none" stroke="#231f20"/><path d="M238.377,89.442c0,-0.97092 0.78708,-1.758 1.758,-1.758c0.97092,0 1.758,0.78708 1.758,1.758c0,0.97092 -0.78708,1.758 -1.758,1.758c-0.97092,0 -1.758,-0.78708 -1.758,-1.758z" fill="#d49b11" stroke="#231f20"/><path d="M238.103,101.017h4.065" fill="none" stroke="#231f20"/><path d="M238.103,99.251h4.065" fill="none" stroke="#231f20"/><path d="M238.103,97.485h4.065" fill="none" stroke="#231f20"/><g fill="#d49b11" stroke="#231f20"><path d="M228.013,127.561c0,-0.8218 0.6662,-1.488 1.488,-1.488c0.8218,0 1.488,0.6662 1.488,1.488c0,0.8218 -0.6662,1.488 -1.488,1.488c-0.8218,0 -1.488,-0.6662 -1.488,-1.488z"/><path d="M235.102,127.561c0,-0.8218 0.6662,-1.488 1.488,-1.488c0.8218,0 1.488,0.6662 1.488,1.488c0,0.8218 -0.6662,1.488 -1.488,1.488c-0.8218,0 -1.488,-0.6662 -1.488,-1.488z"/><path d="M242.19,127.561c0,-0.82235 0.66665,-1.489 1.489,-1.489c0.82235,0 1.489,0.66665 1.489,1.489c0,0.82235 -0.66665,1.489 -1.489,1.489c-0.82235,0 -1.489,-0.66665 -1.489,-1.489z"/><path d="M249.281,127.561c0,-0.8218 0.6662,-1.488 1.488,-1.488c0.8218,0 1.488,0.6662 1.488,1.488c0,0.8218 -0.6662,1.488 -1.488,1.488c-0.8218,0 -1.488,-0.6662 -1.488,-1.488z"/></g><path d="M254.99,126.072c0.82,0 1.487,0.667 1.487,1.489c0.001,0.82 -0.666,1.487 -1.487,1.488" fill="#d49b11" stroke="#231f20"/><path d="M225.305,129.048c-0.822,0 -1.488,-0.667 -1.488,-1.488c0,-0.822 0.666,-1.488 1.487,-1.488" fill="#d49b11" stroke="#231f20"/><path d="M225.669,215.262v-7.883h28.931v7.883z" fill="#e9c769" stroke="#231f20"/><g fill="#d49b11" stroke="#231f20"><path d="M227.574,211.32c0,-0.8218 0.6662,-1.488 1.488,-1.488c0.8218,0 1.488,0.6662 1.488,1.488c0,0.8218 -0.6662,1.488 -1.488,1.488c-0.8218,0 -1.488,-0.6662 -1.488,-1.488z"/><path d="M233.784,211.32c0,-0.8218 0.6662,-1.488 1.488,-1.488c0.8218,0 1.488,0.6662 1.488,1.488c0,0.8218 -0.6662,1.488 -1.488,1.488c-0.8218,0 -1.488,-0.6662 -1.488,-1.488z"/><path d="M243.511,211.32c0,-0.8218 0.6662,-1.488 1.488,-1.488c0.8218,0 1.488,0.6662 1.488,1.488c0,0.8218 -0.6662,1.488 -1.488,1.488c-0.8218,0 -1.488,-0.6662 -1.488,-1.488z"/><path d="M249.72,211.32c0,-0.8218 0.6662,-1.488 1.488,-1.488c0.8218,0 1.488,0.6662 1.488,1.488c0,0.8218 -0.6662,1.488 -1.488,1.488c-0.8218,0 -1.488,-0.6662 -1.488,-1.488z"/></g><path d="M225.277,212.808c-0.821,0 -1.487,-0.667 -1.487,-1.488c0,-0.822 0.667,-1.489 1.488,-1.489" fill="#d49b11" stroke="#231f20"/><path d="M242.718,234.786h-5.165l1.758,-42.941h1.648z" fill="#d49b11" stroke="#231f20"/><path d="M233.784,232.951v17.221" fill="none" stroke="#ffffff"/><path d="M237.553,239.402v14.615" fill="none" stroke="#ffffff"/><path d="M241.742,236.765v9.945" fill="none" stroke="#ffffff"/><path d="M247.238,231.93v16.044" fill="none" stroke="#ffffff"/><path d="M250.83,261.709v-18.021" fill="none" stroke="#ffffff"/><path d="M229.84,244.128v18.24" fill="none" stroke="#ffffff"/><path d="M243.144,250.228l-2.803,2.802" fill="none" stroke="#ffffff"/><path d="M243.144,253.03l-2.803,-2.802" fill="none" stroke="#ffffff"/><path d="M232.633,255.171c0,-0.66164 0.53636,-1.198 1.198,-1.198c0.66164,0 1.198,0.53636 1.198,1.198c0,0.66164 -0.53636,1.198 -1.198,1.198c-0.66164,0 -1.198,-0.53636 -1.198,-1.198z" fill="none" stroke="#ffffff"/><path d="M228.642,240.363c0,-0.66164 0.53636,-1.198 1.198,-1.198c0.66164,0 1.198,0.53636 1.198,1.198c0,0.66164 -0.53636,1.198 -1.198,1.198c-0.66164,0 -1.198,-0.53636 -1.198,-1.198z" fill="none" stroke="#ffffff"/><path d="M238.42,261.307c0,-1.24816 1.01184,-2.26 2.26,-2.26c1.24816,0 2.26,1.01184 2.26,2.26c0,1.24816 -1.01184,2.26 -2.26,2.26c-1.24816,0 -2.26,-1.01184 -2.26,-2.26z" fill="none" stroke="#ffffff"/><path d="M249.632,266.754c0,-0.66164 0.53636,-1.198 1.198,-1.198c0.66164,0 1.198,0.53636 1.198,1.198c0,0.66164 -0.53636,1.198 -1.198,1.198c-0.66164,0 -1.198,-0.53636 -1.198,-1.198z" fill="none" stroke="#ffffff"/><path d="M246.04,253.03c0,-0.66164 0.53636,-1.198 1.198,-1.198c0.66164,0 1.198,0.53636 1.198,1.198c0,0.66164 -0.53636,1.198 -1.198,1.198c-0.66164,0 -1.198,-0.53636 -1.198,-1.198z" fill="none" stroke="#ffffff"/><path d="M241.742,249.398v4.461" fill="none" stroke="#ffffff"/><path d="M249.43,238.418l2.801,-2.802" fill="none" stroke="#ffffff"/><path d="M252.231,238.418l-2.802,-2.802" fill="none" stroke="#ffffff"/><path d="M250.83,234.786v4.461" fill="none" stroke="#ffffff"/><path d="M232.383,269.187l2.802,-2.802" fill="none" stroke="#ffffff"/><path d="M232.383,266.385l2.802,2.802" fill="none" stroke="#ffffff"/><path d="M233.784,270.017v-4.461" fill="none" stroke="#ffffff"/></g></g></svg>